<?xml version="1.0" encoding="utf-8"?>
<!-- Generator: Adobe Illustrator 21.1.0, SVG Export Plug-In . SVG Version: 6.00 Build 0)  -->
<svg version="1.1" id="Layer_1" xmlns="http://www.w3.org/2000/svg" xmlns:xlink="http://www.w3.org/1999/xlink" x="0px" y="0px"
	 width="292px" height="58px" viewBox="0 0 292 58" style="enable-background:new 0 0 292 58;" xml:space="preserve">
<style type="text/css">
	.st0{fill:#FFFFFF;}
</style>
<g>
	<path class="st0" d="M70.6,54.5H63L52.8,16h8.4l6.1,27.9h0.2L74.7,16h6.8l7.2,27.9h0.2L95,16h8.4L93.1,54.5h-7.6l-7.3-26.3h-0.2
		L70.6,54.5z"/>
	<path class="st0" d="M124.2,54.5h-7.6L106.4,16h8.4l6.1,27.9h0.2l7.2-27.9h6.8l7.2,27.9h0.2l6.1-27.9h8.4l-10.3,38.5h-7.6
		l-7.3-26.3h-0.2L124.2,54.5z"/>
	<path class="st0" d="M175.4,16c11.6,0,18.4,6.9,18.4,19.1s-6.8,19.4-18.4,19.4h-14.8V16H175.4z M168.7,47.8h5.7
		c7.2,0,11.1-4.4,11.1-12.7c0-8.1-4-12.5-11.1-12.5h-5.7V47.8z"/>
	<path class="st0" d="M196.3,35.2c0-12.4,7.1-19.9,18.3-19.9c9.3,0,16.3,5.9,17,14.5h-7.9c-0.8-4.7-4.4-7.8-9.1-7.8
		c-6.1,0-10,5.1-10,13.2c0,8.2,3.9,13.3,10.1,13.3c4.8,0,8.2-2.8,9.1-7.4h7.9c-0.9,8.6-7.5,14-17,14
		C203.3,55.2,196.3,47.7,196.3,35.2z"/>
	<path class="st0" d="M245.4,23.4h-0.2l-9.9,6.8v-7.3l10-6.9h8v38.5h-8L245.4,23.4z"/>
	<path class="st0" d="M259.5,44.7h8c0.8,2.6,3.3,4.3,6.4,4.3c5.3,0,8.6-5,8.4-13.9c0,0-0.1,0-0.1,0h-0.1h0
		c-1.4,3.8-5.2,6.3-10.3,6.3c-7.3,0-12.8-5.4-12.8-12.7c0-7.9,6.3-13.6,14.9-13.6c5.6,0,10.2,2.5,12.9,7c2.1,3.3,3.2,7.6,3.2,12.7
		c0,12.7-6.1,20.4-16.2,20.4C266.4,55.3,260.6,51,259.5,44.7L259.5,44.7z M281,28.5c0-3.9-3.1-7-7-7c-4,0-7.1,3-7.1,6.9
		c0,4,3,6.9,7,6.9C278,35.3,281,32.4,281,28.5z"/>
	<path class="st0" d="M31.5,10.9c1.8-2.3,3.1-5.4,2.8-8.6c-2.7,0.1-6,1.8-7.9,4.1c-1.7,2-3.2,5.2-2.8,8.2
		C26.6,14.9,29.6,13.1,31.5,10.9"/>
	<path class="st0" d="M34.3,15.2c-4.4-0.3-8.1,2.5-10.2,2.5s-5.3-2.4-8.8-2.3c-4.5,0.1-8.7,2.6-11,6.7C-0.5,30.2,3,42.3,7.6,48.9
		c2.2,3.3,4.9,6.9,8.4,6.8c3.3-0.1,4.7-2.2,8.7-2.2s5.2,2.2,8.8,2.1c3.7-0.1,6-3.3,8.2-6.6c2.6-3.7,3.6-7.3,3.7-7.5
		c-0.1-0.1-7.1-2.8-7.1-10.8c-0.1-6.8,5.5-10,5.8-10.2C40.9,15.9,36,15.4,34.3,15.2"/>
</g>
</svg>
